HIERARCHY
ROOT hip
{
	OFFSET 0.000000 0.000000 0.000000
	CHANNELS 6 Xposition Yposition Zposition Xrotation Zrotation Yrotation 
	JOINT abdomen
	{
		OFFSET 0.000000 3.422050 0.000000
		CHANNELS 3 Xrotation Zrotation Yrotation 
		JOINT chest
		{
			OFFSET 0.000000 8.486693 -0.684411
			CHANNELS 3 Xrotation Zrotation Yrotation 
			JOINT neck
			{
				OFFSET 0.000000 10.266162 -0.273764
				CHANNELS 3 Xrotation Zrotation Yrotation 
				JOINT head
				{
					OFFSET 0.000000 3.148285 0.000000
					CHANNELS 3 Xrotation Zrotation Yrotation 
					End Site
					{
						OFFSET 0.000000 3.148289 0.000000
					}
				}
			}
			JOINT lCollar
			{
				OFFSET 3.422053 6.707223 -0.821293
				CHANNELS 3 Yrotation Zrotation Xrotation 
				JOINT lShldr
				{
					OFFSET 3.285171 0.000000 0.000000
					CHANNELS 3 Zrotation Yrotation Xrotation 
					JOINT lForeArm
					{
						OFFSET 10.129278 0.000000 0.000000
						CHANNELS 3 Yrotation Zrotation Xrotation 
						JOINT lHand
						{
							OFFSET 8.486692 0.000000 0.000000
							CHANNELS 3 Zrotation Yrotation Xrotation 
							End Site
							{
								OFFSET 4.106464 0.000000 0.000000
							}
						}
					}
				}
			}
			JOINT rCollar
			{
				OFFSET -3.558935 6.707223 -0.821293
				CHANNELS 3 Yrotation Zrotation Xrotation 
				JOINT rShldr
				{
					OFFSET -3.148289 0.000000 0.000000
					CHANNELS 3 Zrotation Yrotation Xrotation 
					JOINT rForeArm
					{
						OFFSET -10.266159 0.000000 0.000000
						CHANNELS 3 Yrotation Zrotation Xrotation 
						JOINT rHand
						{
							OFFSET -8.349810 0.000000 0.000000
							CHANNELS 3 Zrotation Yrotation Xrotation 
							End Site
							{
								OFFSET -4.106464 0.000000 0.000000
							}
						}
					}
				}
			}
		}
	}
	JOINT lThigh
	{
		OFFSET 5.338403 -1.642589 1.368821
		CHANNELS 3 Xrotation Zrotation Yrotation 
		JOINT lShin
		{
			OFFSET -2.053232 -20.121670 0.000000
			CHANNELS 3 Xrotation Zrotation Yrotation 
			JOINT lFoot
			{
				OFFSET 0.000000 -19.300380 -1.231939
				CHANNELS 3 Xrotation Yrotation Zrotation 
				End Site
				{
					OFFSET 0.000000 -2.463878 4.653993
				}
			}
		}
	}
	JOINT rThigh
	{
		OFFSET -5.338403 -1.642589 1.368821
		CHANNELS 3 Xrotation Zrotation Yrotation 
		JOINT rShin
		{
			OFFSET 2.053232 -20.121670 0.000000
			CHANNELS 3 Xrotation Zrotation Yrotation 
			JOINT rFoot
			{
				OFFSET 0.000000 -19.300380 -1.231939
				CHANNELS 3 Xrotation Yrotation Zrotation 
				End Site
				{
					OFFSET 0.000000 -2.463878 4.653993
				}
			}
		}
	}
}
MOTION
Frames: 8
Frame Time: 0.022176
0.501617 17.351065 2.123630 7.350670 0.000000 -180.000000 44.569004 -1.476069 -1.007834 25.630381 -1.006815 -0.450195 -0.148122 0.000000 0.000000 -29.768530 17.933245 2.899265 -16.144882 -7.613508 -12.686610 -77.740555 -62.422855 56.881599 2.816475 11.458533 -13.186202 39.191086 -10.050186 8.858510 14.993681 7.176711 -12.390970 80.386703 62.594143 59.266254 -2.330527 -11.291191 -13.123803 -33.779171 9.276217 8.321699 -97.504829 45.759510 6.001174 110.362823 4.868426 -1.160895 -13.873347 -0.682755 -2.076828 -97.490822 -45.818771 -6.047272 110.363411 -4.879769 1.157768 -13.882838 0.715258 2.036447 
0.501617 17.480377 2.123630 7.701109 0.000000 -180.000000 45.348740 -1.476109 -1.007814 25.980837 -1.006850 -0.450179 -0.147381 0.000000 0.000000 -29.613989 17.840805 2.908952 -16.213459 -7.474110 -13.152851 -77.740555 -62.422855 56.881599 2.816475 11.458533 -13.186202 39.393818 -10.206574 8.780696 15.006391 7.021591 -12.844357 80.386703 62.594143 59.266254 -2.330527 -11.291191 -13.123803 -34.009632 9.394430 8.219168 -96.558945 45.759911 6.297650 110.065269 4.856784 -1.186240 -13.995108 -0.712965 -2.176492 -96.543381 -45.821430 -6.346916 110.065887 -4.868718 1.183229 -14.005067 0.747052 2.134228 
0.501617 17.609688 2.123630 8.051535 0.000000 -180.000000 46.128330 -1.476149 -1.007794 26.331272 -1.006886 -0.450164 -0.146641 0.000000 0.000000 -29.459497 17.748314 2.918375 -16.280859 -7.334175 -13.618741 -77.740555 -62.422855 56.881599 2.816475 11.458533 -13.186202 39.596867 -10.362689 8.702285 15.017859 6.866388 -13.297530 80.386703 62.594143 59.266254 -2.330527 -11.291191 -13.123803 -34.240383 9.512232 8.116121 -95.613266 45.756912 6.594043 109.767746 4.845011 -1.211523 -14.116915 -0.742962 -2.276220 -95.596054 -45.820625 -6.646543 109.768372 -4.857534 1.208630 -14.127351 0.778636 2.232076 
0.501617 17.738998 2.123630 8.401939 0.000000 -180.000000 46.907707 -1.476190 -1.007774 26.681700 -1.006921 -0.450150 -0.145900 0.000000 0.000000 -29.305080 17.655785 2.927533 -16.347086 -7.193715 -14.084272 -77.740555 -62.422855 56.881599 2.816475 11.458533 -13.186202 39.800224 -10.518521 8.623270 15.028090 6.711116 -13.750479 80.386703 62.594143 59.266254 -2.330527 -11.291191 -13.123803 -34.471409 9.629616 8.012558 -94.667931 45.750496 6.890217 109.470230 4.833109 -1.236743 -14.238778 -0.772747 -2.376011 -94.649010 -45.816353 -6.946010 109.470879 -4.846220 1.233972 -14.249686 0.810012 2.329991 
0.501617 17.868311 2.123630 8.752319 0.000000 -180.000000 47.686790 -1.476231 -1.007756 27.032099 -1.006957 -0.450135 -0.145159 0.000000 0.000000 -29.150732 17.563221 2.936426 -16.412128 -7.052744 -14.549428 -77.740555 -62.422855 56.881599 2.816475 11.458533 -13.186202 40.003891 -10.674071 8.543659 15.037080 6.555792 -14.203196 80.386703 62.594143 59.266254 -2.330527 -11.291191 -13.123803 -34.702724 9.746584 7.908486 -93.723145 45.740669 7.186047 109.172752 4.821077 -1.261899 -14.360691 -0.802319 -2.475864 -93.702499 -45.808662 -7.245199 109.173416 -4.834775 1.259252 -14.372072 0.841177 2.427971 
0.501617 17.997622 2.123630 9.102663 0.000000 -180.000000 48.465515 -1.476272 -1.007737 27.382462 -1.006993 -0.450121 -0.144419 0.000000 0.000000 -28.996449 17.470613 2.945055 -16.475985 -6.911283 -15.014199 -77.740555 -62.422855 56.881599 2.816475 11.458533 -13.186202 40.207870 -10.829333 8.463449 15.044830 6.400428 -14.655668 80.386703 62.594143 59.266254 -2.330527 -11.291192 -13.123804 -34.934322 9.863130 7.803905 -92.779060 45.727467 7.481426 108.875298 4.808915 -1.286989 -14.482655 -0.831678 -2.575779 -92.756638 -45.797523 -7.543976 108.875977 -4.823200 1.284470 -14.494514 0.872133 2.526017 
0.501617 18.126934 2.123630 9.452969 0.000000 -180.000000 49.243809 -1.476313 -1.007720 27.732786 -1.007029 -0.450107 -0.143678 0.000000 0.000000 -28.842226 17.377966 2.953420 -16.538654 -6.769341 -15.478577 -77.740555 -62.422855 56.881599 2.816475 11.458533 -13.186202 40.412170 -10.984306 8.382640 15.051340 6.245038 -15.107888 80.386703 62.594143 59.266254 -2.330527 -11.291192 -13.123804 -35.166210 9.979252 7.698817 -91.835831 45.710861 7.776205 108.577896 4.796626 -1.312014 -14.604664 -0.860824 -2.675755 -91.811554 -45.782948 -7.842223 108.578583 -4.811497 1.309626 -14.617000 0.902878 2.624127 
0.501617 18.256245 2.123630 9.803228 0.000000 -180.000000 50.021606 -1.476355 -1.007703 28.083069 -1.007065 -0.450093 -0.142937 0.000000 0.000000 -28.688063 17.285276 2.961520 -16.600128 -6.626935 -15.942548 -77.740555 -62.422855 56.881599 2.816475 11.458533 -13.186202 40.616779 -11.138980 8.301229 15.056616 6.089643 -15.559849 80.386703 62.594143 59.266254 -2.330527 -11.291192 -13.123804 -35.398376 10.094945 7.593223 -90.893639 45.690891 8.070284 108.280510 4.784208 -1.336971 -14.726722 -0.889756 -2.775790 -90.867477 -45.764977 -8.139831 108.281212 -4.799664 1.334717 -14.739540 0.933413 2.722301 
